<svg width="36" height="36" viewBox="0 0 36 36" fill="none" xmlns="http://www.w3.org/2000/svg">
<path d="M25.8595 34.125H10.1395C5.93953 34.125 3.26953 31.62 3.02953 27.435L2.24953 15.06C2.12953 13.185 2.77453 11.385 4.06453 10.02C5.33953 8.655 7.13953 7.875 8.99953 7.875C9.47953 7.875 9.94453 7.59 10.1695 7.14L11.2495 4.995C12.1345 3.24 14.3545 1.875 16.2895 1.875H19.7245C21.6595 1.875 23.8645 3.24 24.7495 4.98L25.8295 7.17C26.0545 7.59 26.5045 7.875 26.9995 7.875C28.8595 7.875 30.6595 8.655 31.9345 10.02C33.2245 11.4 33.8695 13.185 33.7495 15.06L32.9695 27.45C32.6995 31.695 30.1045 34.125 25.8595 34.125ZM16.2895 4.125C15.1795 4.125 13.7695 4.995 13.2595 6L12.1795 8.16C11.5495 9.375 10.3345 10.125 8.99953 10.125C7.73953 10.125 6.56953 10.635 5.69953 11.55C4.84453 12.465 4.40953 13.665 4.49953 14.91L5.27953 27.3C5.45953 30.33 7.09453 31.875 10.1395 31.875H25.8595C28.8895 31.875 30.5245 30.33 30.7195 27.3L31.4995 14.91C31.5745 13.665 31.1545 12.465 30.2995 11.55C29.4295 10.635 28.2595 10.125 26.9995 10.125C25.6645 10.125 24.4495 9.375 23.8195 8.19L22.7245 6C22.2295 5.01 20.8195 4.14 19.7095 4.14H16.2895V4.125Z" fill="#4B4B4B"/>
<path d="M20.25 13.125H15.75C15.135 13.125 14.625 12.615 14.625 12C14.625 11.385 15.135 10.875 15.75 10.875H20.25C20.865 10.875 21.375 11.385 21.375 12C21.375 12.615 20.865 13.125 20.25 13.125Z" fill="#4B4B4B"/>
<path d="M18 28.125C14.685 28.125 12 25.44 12 22.125C12 18.81 14.685 16.125 18 16.125C21.315 16.125 24 18.81 24 22.125C24 25.44 21.315 28.125 18 28.125ZM18 18.375C15.93 18.375 14.25 20.055 14.25 22.125C14.25 24.195 15.93 25.875 18 25.875C20.07 25.875 21.75 24.195 21.75 22.125C21.75 20.055 20.07 18.375 18 18.375Z" fill="#4B4B4B"/>
</svg>
