<svg width="36" height="36" viewBox="0 0 36 36" fill="none" xmlns="http://www.w3.org/2000/svg">
<path d="M25.5152 20.2216C24.0152 20.2216 22.7852 18.9916 22.7852 17.4916C22.7852 15.9916 24.0152 14.7617 25.5152 14.7617C27.0152 14.7617 28.2451 15.9916 28.2451 17.4916C28.2451 18.9916 27.0152 20.2216 25.5152 20.2216ZM25.5152 17.0117C25.2452 17.0117 25.0352 17.2216 25.0352 17.4916C25.0352 17.7616 25.2452 17.9716 25.5152 17.9716C25.7852 17.9716 25.9951 17.7616 25.9951 17.4916C25.9951 17.2216 25.7852 17.0117 25.5152 17.0117Z" fill="#4B4B4B"/>
<path d="M18.03 24.675H9C3.6 24.675 1.875 22.95 1.875 17.55V9C1.875 3.6 3.6 1.875 9 1.875H24C29.4 1.875 31.125 3.6 31.125 9V11.685C31.125 12 30.99 12.315 30.75 12.525C30.51 12.735 30.195 12.84 29.865 12.795C29.535 12.75 29.145 12.735 28.725 12.735H22.305C19.71 12.735 19.155 13.29 19.155 15.885V23.55C19.155 24.165 18.645 24.675 18.03 24.675ZM9 4.125C4.815 4.125 4.125 4.815 4.125 9V17.55C4.125 21.735 4.815 22.425 9 22.425H16.905V15.885C16.905 12.045 18.465 10.485 22.305 10.485H28.725C28.77 10.485 28.83 10.485 28.875 10.485V9C28.875 4.815 28.185 4.125 24 4.125H9Z" fill="#4B4B4B"/>
<path d="M13.5 31.1258C12.885 31.1258 12.375 30.6158 12.375 30.0008V23.5508C12.375 22.9358 12.885 22.4258 13.5 22.4258C14.115 22.4258 14.625 22.9358 14.625 23.5508V30.0008C14.625 30.6158 14.115 31.1258 13.5 31.1258Z" fill="#4B4B4B"/>
<path d="M18 18.9766H3C2.385 18.9766 1.875 18.4666 1.875 17.8516C1.875 17.2366 2.385 16.7266 3 16.7266H18C18.615 16.7266 19.125 17.2366 19.125 17.8516C19.125 18.4666 18.615 18.9766 18 18.9766Z" fill="#4B4B4B"/>
<path d="M18.0008 31.125H8.92578C8.31078 31.125 7.80078 30.615 7.80078 30C7.80078 29.385 8.31078 28.875 8.92578 28.875H18.0008C18.6158 28.875 19.1258 29.385 19.1258 30C19.1258 30.615 18.6158 31.125 18.0008 31.125Z" fill="#4B4B4B"/>
<path d="M25.5152 20.2216C24.0152 20.2216 22.7852 18.9916 22.7852 17.4916C22.7852 15.9916 24.0152 14.7617 25.5152 14.7617C27.0152 14.7617 28.2451 15.9916 28.2451 17.4916C28.2451 18.9916 27.0152 20.2216 25.5152 20.2216ZM25.5152 17.0117C25.2452 17.0117 25.0352 17.2216 25.0352 17.4916C25.0352 17.7616 25.2452 17.9716 25.5152 17.9716C25.7852 17.9716 25.9951 17.7616 25.9951 17.4916C25.9951 17.2216 25.7852 17.0117 25.5152 17.0117Z" fill="#4B4B4B"/>
<path d="M30.0003 11.6844C29.6253 11.6394 29.1903 11.6094 28.7253 11.6094H22.3053C19.0953 11.6094 18.0303 12.6744 18.0303 15.8844V28.7244C18.0303 31.9344 19.0953 32.9994 22.3053 32.9994H28.7253C31.9353 32.9994 33.0003 31.9344 33.0003 28.7244V15.8844C33.0003 13.1394 32.2203 11.9694 30.0003 11.6844ZM25.5153 15.8844C26.4003 15.8844 27.1203 16.6043 27.1203 17.4893C27.1203 18.3743 26.4003 19.0944 25.5153 19.0944C24.6303 19.0944 23.9103 18.3743 23.9103 17.4893C23.9103 16.6043 24.6303 15.8844 25.5153 15.8844ZM25.5153 28.7244C23.7453 28.7244 22.3053 27.2844 22.3053 25.5144C22.3053 24.7794 22.5603 24.0894 22.9803 23.5494C23.5653 22.7994 24.4803 22.3044 25.5153 22.3044C26.3253 22.3044 27.0603 22.6044 27.6153 23.0844C28.2903 23.6844 28.7253 24.5544 28.7253 25.5144C28.7253 27.2844 27.2853 28.7244 25.5153 28.7244Z" stroke="#4B4B4B" stroke-width="1.5" stroke-miterlimit="10" stroke-linecap="round" stroke-linejoin="round"/>
<path d="M25.5147 29.8497C23.1297 29.8497 21.1797 27.8997 21.1797 25.5147C21.1797 24.5547 21.5097 23.6097 22.0947 22.8597C22.9197 21.7947 24.1797 21.1797 25.5147 21.1797C26.5497 21.1797 27.5697 21.5547 28.3497 22.2297C29.3097 23.0847 29.8497 24.2697 29.8497 25.5147C29.8497 27.8997 27.8997 29.8497 25.5147 29.8497ZM25.5147 23.4297C24.8697 23.4297 24.2697 23.7297 23.8647 24.2397C23.5797 24.5997 23.4297 25.0497 23.4297 25.5147C23.4297 26.6697 24.3597 27.5997 25.5147 27.5997C26.6697 27.5997 27.5997 26.6697 27.5997 25.5147C27.5997 24.9147 27.3297 24.3447 26.8647 23.9247C26.5047 23.6097 26.0097 23.4297 25.5147 23.4297Z" fill="#4B4B4B"/>
<path d="M25.5152 20.2216C24.0152 20.2216 22.7852 18.9916 22.7852 17.4916C22.7852 15.9916 24.0152 14.7617 25.5152 14.7617C27.0152 14.7617 28.2451 15.9916 28.2451 17.4916C28.2451 18.9916 27.0152 20.2216 25.5152 20.2216ZM25.5152 17.0117C25.2452 17.0117 25.0352 17.2216 25.0352 17.4916C25.0352 17.7616 25.2452 17.9716 25.5152 17.9716C25.7852 17.9716 25.9951 17.7616 25.9951 17.4916C25.9951 17.2216 25.7852 17.0117 25.5152 17.0117Z" fill="#4B4B4B"/>
</svg>
