<svg width="36" height="36" viewBox="0 0 36 36" fill="none" xmlns="http://www.w3.org/2000/svg">
<path d="M9.78043 24.3916C9.49543 24.3916 9.21043 24.2866 8.98543 24.0616C8.55043 23.6266 8.55043 22.9066 8.98543 22.4716L13.5604 17.8966C13.9954 17.4616 14.7154 17.4616 15.1504 17.8966C15.5854 18.3316 15.5854 19.0516 15.1504 19.4866L10.5754 24.0616C10.3504 24.2716 10.0654 24.3916 9.78043 24.3916Z" fill="#4B4B4B"/>
<path d="M14.4004 24.4345C14.1154 24.4345 13.8304 24.3295 13.6054 24.1045L9.03035 19.5295C8.59535 19.0945 8.59535 18.3745 9.03035 17.9395C9.46535 17.5045 10.1854 17.5045 10.6204 17.9395L15.1954 22.5145C15.6304 22.9495 15.6304 23.6695 15.1954 24.1045C14.9704 24.3295 14.6854 24.4345 14.4004 24.4345Z" fill="#4B4B4B"/>
<path d="M20.3099 22.5C19.4849 22.5 18.7949 21.825 18.7949 21C18.7949 20.175 19.4549 19.5 20.2799 19.5H20.3099C21.1349 19.5 21.8099 20.175 21.8099 21C21.8099 21.825 21.1499 22.5 20.3099 22.5Z" fill="#4B4B4B"/>
<path d="M26.2201 22.5C25.3951 22.5 24.7051 21.825 24.7051 21C24.7051 20.175 25.3651 19.5 26.1901 19.5H26.2201C27.0451 19.5 27.7201 20.175 27.7201 21C27.7201 21.825 27.0451 22.5 26.2201 22.5Z" fill="#4B4B4B"/>
<path d="M23.25 25.4564C22.425 25.4564 21.75 24.7964 21.75 23.9714V23.9414C21.75 23.1164 22.425 22.4414 23.25 22.4414C24.075 22.4414 24.75 23.1164 24.75 23.9414C24.75 24.7664 24.09 25.4564 23.25 25.4564Z" fill="#4B4B4B"/>
<path d="M23.25 19.5462C22.425 19.5462 21.75 18.8862 21.75 18.0612V18.0313C21.75 17.2063 22.425 16.5312 23.25 16.5312C24.075 16.5312 24.75 17.2063 24.75 18.0313C24.75 18.8563 24.09 19.5462 23.25 19.5462Z" fill="#4B4B4B"/>
<path d="M22.5 34.125H13.5C5.355 34.125 1.875 30.645 1.875 22.5V19.5C1.875 11.355 5.355 7.875 13.5 7.875H22.5C30.645 7.875 34.125 11.355 34.125 19.5V22.5C34.125 30.645 30.645 34.125 22.5 34.125ZM13.5 10.125C6.585 10.125 4.125 12.585 4.125 19.5V22.5C4.125 29.415 6.585 31.875 13.5 31.875H22.5C29.415 31.875 31.875 29.415 31.875 22.5V19.5C31.875 12.585 29.415 10.125 22.5 10.125H13.5Z" fill="#4B4B4B"/>
<path d="M19.4854 10.125H17.9854C16.5454 10.125 15.3604 8.94 15.3604 7.5C15.3604 6.06 16.5304 4.875 17.9704 4.875C18.2104 4.875 18.3754 4.71 18.3904 4.5L18.4054 2.985C18.4204 2.37 18.9154 1.875 19.5304 1.875H19.5454C20.1604 1.89 20.6704 2.4 20.6554 3.015L20.6404 4.53C20.6254 5.955 19.4404 7.125 18.0154 7.125C17.7754 7.125 17.6254 7.29 17.6254 7.5C17.6254 7.71 17.7904 7.875 18.0004 7.875H19.5004C20.1154 7.875 20.6254 8.385 20.6254 9C20.6254 9.615 20.1004 10.125 19.4854 10.125Z" fill="#4B4B4B"/>
</svg>
