<svg width="36" height="36" viewBox="0 0 36 36" fill="none" xmlns="http://www.w3.org/2000/svg">
<path d="M8.35456 34.0492C4.84456 34.0492 1.87456 31.0792 1.87456 27.5692V18.3292C1.79956 13.9492 3.41956 9.82422 6.44956 6.73422C9.47956 3.65922 13.5446 1.94922 17.9246 1.94922C26.8646 1.94922 34.1246 9.22422 34.1246 18.1492V27.3892C34.1246 30.9592 31.2146 33.8692 27.6446 33.8692C24.1346 33.8692 21.1646 30.8992 21.1646 27.3892V23.1742C21.1646 20.9992 22.8746 19.2892 25.0496 19.2892C27.2246 19.2892 28.9346 20.9992 28.9346 23.1742V27.7192C28.9346 28.3342 28.4246 28.8442 27.8096 28.8442C27.1946 28.8442 26.6846 28.3342 26.6846 27.7192V23.1742C26.6846 22.1542 25.8596 21.5392 25.0496 21.5392C24.0296 21.5392 23.4146 22.3642 23.4146 23.1742V27.3892C23.4146 29.6842 25.3496 31.6192 27.6446 31.6192C29.9396 31.6192 31.8746 29.6842 31.8746 27.3892V18.1492C31.8746 10.4542 25.6196 4.19922 17.9246 4.19922C14.1596 4.19922 10.6646 5.65422 8.05456 8.30922C5.44456 10.9642 4.04956 14.5192 4.12456 18.2992V27.5692C4.12456 29.8642 6.05956 31.7992 8.35456 31.7992C10.6496 31.7992 12.5846 29.8642 12.5846 27.5692V23.3542C12.5846 22.3342 11.7596 21.7192 10.9496 21.7192C9.92956 21.7192 9.31456 22.5442 9.31456 23.3542V27.7342C9.31456 28.3492 8.80456 28.8592 8.18956 28.8592C7.57456 28.8592 7.06456 28.3492 7.06456 27.7342V23.3542C7.06456 21.1792 8.77456 19.4692 10.9496 19.4692C13.1246 19.4692 14.8346 21.1792 14.8346 23.3542V27.5692C14.8346 31.0792 11.8646 34.0492 8.35456 34.0492Z" fill="#4B4B4B"/>
</svg>
