<svg width="36" height="36" viewBox="0 0 36 36" fill="none" xmlns="http://www.w3.org/2000/svg">
<path d="M3 32.0018C2.44772 32.0018 2 32.4495 2 33.0018C2 33.5541 2.44772 34.0018 3 34.0018V33.0018V32.0018ZM33 34.0018C33.5523 34.0018 34 33.5541 34 33.0018C34 32.4495 33.5523 32.0018 33 32.0018V33.0018V34.0018ZM4.5 14.9568L5.5 14.961V14.9568H4.5ZM5.655 12.6019L5.04065 11.8128L5.0343 11.8178L5.655 12.6019ZM16.155 4.42688L15.5411 3.63752L15.5407 3.63783L16.155 4.42688ZM19.845 4.42688L20.4586 3.63726L20.4537 3.63344L19.845 4.42688ZM30.345 12.5869L29.7314 13.3765L29.7322 13.3771L30.345 12.5869ZM14.25 33.0018H13.25C13.25 33.5541 13.6977 34.0018 14.25 34.0018V33.0018ZM21.75 33.0018V34.0018C22.3023 34.0018 22.75 33.5541 22.75 33.0018H21.75ZM27.5 10.5118C27.5056 11.0641 27.9577 11.5073 28.51 11.5018C29.0623 11.4963 29.5055 11.0441 29.5 10.4918L28.5 10.5018L27.5 10.5118ZM28.455 6.00183L29.455 5.99183C29.4495 5.44348 29.0034 5.00183 28.455 5.00183V6.00183ZM21.855 5.00183C21.3027 5.00183 20.855 5.44955 20.855 6.00183C20.855 6.55412 21.3027 7.00183 21.855 7.00183V6.00183V5.00183ZM3 33.0018V34.0018H33V33.0018V32.0018H3V33.0018ZM4.425 33.0019L5.42499 33.006L5.49999 14.961L4.5 14.9568L3.50001 14.9527L3.42501 32.9977L4.425 33.0019ZM4.5 14.9568H5.5C5.5 14.3584 5.78652 13.7732 6.2757 13.3859L5.655 12.6019L5.0343 11.8178C4.08348 12.5706 3.5 13.7252 3.5 14.9568H4.5ZM5.655 12.6019L6.26933 13.3909L16.7693 5.21592L16.155 4.42688L15.5407 3.63783L5.04067 11.8128L5.655 12.6019ZM16.155 4.42688L16.7689 5.21623C17.4854 4.65901 18.4979 4.65381 19.2363 5.22031L19.845 4.42688L20.4537 3.63344C19.0021 2.51994 16.9846 2.51474 15.5411 3.63752L16.155 4.42688ZM19.845 4.42688L19.2314 5.21647L29.7314 13.3765L30.345 12.5869L30.9586 11.7973L20.4586 3.63728L19.845 4.42688ZM30.345 12.5869L29.7322 13.3771C30.2193 13.7549 30.5 14.3313 30.5 14.9568H31.5H32.5C32.5 13.7223 31.9407 12.5589 30.9578 11.7967L30.345 12.5869ZM31.5 14.9568H30.5V33.0019H31.5H32.5V14.9568H31.5ZM19.5 25.5018V24.5018H16.5V25.5018V26.5018H19.5V25.5018ZM16.5 25.5018V24.5018C14.7027 24.5018 13.25 25.9545 13.25 27.7518H14.25H15.25C15.25 27.0591 15.8073 26.5018 16.5 26.5018V25.5018ZM14.25 27.7518H13.25V33.0018H14.25H15.25V27.7518H14.25ZM14.25 33.0018V34.0018H21.75V33.0018V32.0018H14.25V33.0018ZM21.75 33.0018H22.75V27.7518H21.75H20.75V33.0018H21.75ZM21.75 27.7518H22.75C22.75 25.9545 21.2973 24.5018 19.5 24.5018V25.5018V26.5018C20.1927 26.5018 20.75 27.0591 20.75 27.7518H21.75ZM14.25 20.6268V19.6268H11.25V20.6268V21.6268H14.25V20.6268ZM11.25 20.6268V19.6268C10.9773 19.6268 10.75 19.3995 10.75 19.1268H9.75H8.75C8.75 20.5041 9.87272 21.6268 11.25 21.6268V20.6268ZM9.75 19.1268H10.75V16.8768H9.75H8.75V19.1268H9.75ZM9.75 16.8768H10.75C10.75 16.6041 10.9773 16.3768 11.25 16.3768V15.3768V14.3768C9.87272 14.3768 8.75 15.4995 8.75 16.8768H9.75ZM11.25 15.3768V16.3768H14.25V15.3768V14.3768H11.25V15.3768ZM14.25 15.3768V16.3768C14.5227 16.3768 14.75 16.6041 14.75 16.8768H15.75H16.75C16.75 15.4995 15.6273 14.3768 14.25 14.3768V15.3768ZM15.75 16.8768H14.75V19.1268H15.75H16.75V16.8768H15.75ZM15.75 19.1268H14.75C14.75 19.3995 14.5227 19.6268 14.25 19.6268V20.6268V21.6268C15.6273 21.6268 16.75 20.5041 16.75 19.1268H15.75ZM24.75 20.6268V19.6268H21.75V20.6268V21.6268H24.75V20.6268ZM21.75 20.6268V19.6268C21.4773 19.6268 21.25 19.3995 21.25 19.1268H20.25H19.25C19.25 20.5041 20.3727 21.6268 21.75 21.6268V20.6268ZM20.25 19.1268H21.25V16.8768H20.25H19.25V19.1268H20.25ZM20.25 16.8768H21.25C21.25 16.6041 21.4773 16.3768 21.75 16.3768V15.3768V14.3768C20.3727 14.3768 19.25 15.4995 19.25 16.8768H20.25ZM21.75 15.3768V16.3768H24.75V15.3768V14.3768H21.75V15.3768ZM24.75 15.3768V16.3768C25.0227 16.3768 25.25 16.6041 25.25 16.8768H26.25H27.25C27.25 15.4995 26.1273 14.3768 24.75 14.3768V15.3768ZM26.25 16.8768H25.25V19.1268H26.25H27.25V16.8768H26.25ZM26.25 19.1268H25.25C25.25 19.3995 25.0227 19.6268 24.75 19.6268V20.6268V21.6268C26.1273 21.6268 27.25 20.5041 27.25 19.1268H26.25ZM28.5 10.5018L29.5 10.4918L29.455 5.99183L28.455 6.00183L27.4551 6.01183L27.5 10.5118L28.5 10.5018ZM28.455 6.00183V5.00183H21.855V6.00183V7.00183H28.455V6.00183Z" fill="#4B4B4B"/>
</svg>
