<svg width="36" height="36" viewBox="0 0 36 36" fill="none" xmlns="http://www.w3.org/2000/svg">
<path d="M22.5 34.125H13.5C6.885 34.125 4.875 32.115 4.875 25.5V10.5C4.875 3.885 6.885 1.875 13.5 1.875H22.5C29.115 1.875 31.125 3.885 31.125 10.5V25.5C31.125 32.115 29.115 34.125 22.5 34.125ZM13.5 4.125C8.13 4.125 7.125 5.145 7.125 10.5V25.5C7.125 30.855 8.13 31.875 13.5 31.875H22.5C27.87 31.875 28.875 30.855 28.875 25.5V10.5C28.875 5.145 27.87 4.125 22.5 4.125H13.5Z" fill="#4B4B4B"/>
<path d="M21 9.375H15C14.385 9.375 13.875 8.865 13.875 8.25C13.875 7.635 14.385 7.125 15 7.125H21C21.615 7.125 22.125 7.635 22.125 8.25C22.125 8.865 21.615 9.375 21 9.375Z" fill="#4B4B4B"/>
<path d="M17.9998 29.7906C16.0948 29.7906 14.5498 28.2456 14.5498 26.3406C14.5498 24.4356 16.0948 22.8906 17.9998 22.8906C19.9048 22.8906 21.4498 24.4356 21.4498 26.3406C21.4498 28.2456 19.9048 29.7906 17.9998 29.7906ZM17.9998 25.1256C17.3398 25.1256 16.7998 25.6656 16.7998 26.3256C16.7998 26.9856 17.3398 27.5256 17.9998 27.5256C18.6598 27.5256 19.1998 26.9856 19.1998 26.3256C19.1998 25.6656 18.6598 25.1256 17.9998 25.1256Z" fill="#4B4B4B"/>
</svg>
