<svg width="36" height="36" viewBox="0 0 36 36" fill="none" xmlns="http://www.w3.org/2000/svg">
<path d="M26.34 26.955H9.66C3.69 26.955 1.875 25.14 1.875 19.17V9.66C1.875 3.69 3.69 1.875 9.66 1.875H26.325C32.295 1.875 34.11 3.69 34.11 9.66V19.155C34.125 25.14 32.31 26.955 26.34 26.955ZM9.66 4.125C4.95 4.125 4.125 4.95 4.125 9.66V19.155C4.125 23.865 4.95 24.69 9.66 24.69H26.325C31.035 24.69 31.86 23.865 31.86 19.155V9.66C31.86 4.95 31.035 4.125 26.325 4.125H9.66V4.125Z" fill="#4B4B4B"/>
<path d="M18 34.1231C17.385 34.1231 16.875 33.6131 16.875 32.9981V25.8281C16.875 25.2131 17.385 24.7031 18 24.7031C18.615 24.7031 19.125 25.2131 19.125 25.8281V32.9981C19.125 33.6131 18.615 34.1231 18 34.1231Z" fill="#4B4B4B"/>
<path d="M33 20.625H3C2.385 20.625 1.875 20.115 1.875 19.5C1.875 18.885 2.385 18.375 3 18.375H33C33.615 18.375 34.125 18.885 34.125 19.5C34.125 20.115 33.615 20.625 33 20.625Z" fill="#4B4B4B"/>
<path d="M24.75 34.125H11.25C10.635 34.125 10.125 33.615 10.125 33C10.125 32.385 10.635 31.875 11.25 31.875H24.75C25.365 31.875 25.875 32.385 25.875 33C25.875 33.615 25.365 34.125 24.75 34.125Z" fill="#4B4B4B"/>
</svg>
