<svg width="36" height="36" viewBox="0 0 36 36" fill="none" xmlns="http://www.w3.org/2000/svg">
<path d="M18 34.125C11.175 34.125 5.625 28.575 5.625 21.75V14.25C5.625 7.425 11.175 1.875 18 1.875C24.825 1.875 30.375 7.425 30.375 14.25V21.75C30.375 28.575 24.825 34.125 18 34.125ZM18 4.125C12.42 4.125 7.875 8.67 7.875 14.25V21.75C7.875 27.33 12.42 31.875 18 31.875C23.58 31.875 28.125 27.33 28.125 21.75V14.25C28.125 8.67 23.58 4.125 18 4.125Z" fill="#4B4B4B"/>
<path d="M18 17.625C16.14 17.625 14.625 16.11 14.625 14.25V11.25C14.625 9.39 16.14 7.875 18 7.875C19.86 7.875 21.375 9.39 21.375 11.25V14.25C21.375 16.11 19.86 17.625 18 17.625ZM18 10.125C17.385 10.125 16.875 10.635 16.875 11.25V14.25C16.875 14.865 17.385 15.375 18 15.375C18.615 15.375 19.125 14.865 19.125 14.25V11.25C19.125 10.635 18.615 10.125 18 10.125Z" fill="#4B4B4B"/>
<path d="M18 10.125C17.385 10.125 16.875 9.615 16.875 9V3C16.875 2.385 17.385 1.875 18 1.875C18.615 1.875 19.125 2.385 19.125 3V9C19.125 9.615 18.615 10.125 18 10.125Z" fill="#4B4B4B"/>
</svg>
