<svg width="36" height="36" viewBox="0 0 36 36" fill="none" xmlns="http://www.w3.org/2000/svg">
<path d="M12.8546 24.0283C12.5696 24.0283 12.2846 23.9233 12.0596 23.6983C11.6246 23.2633 11.6246 22.5433 12.0596 22.1083L21.8846 12.2833C22.3196 11.8483 23.0396 11.8483 23.4746 12.2833C23.9096 12.7183 23.9096 13.4383 23.4746 13.8733L13.6496 23.6983C13.4246 23.9233 13.1396 24.0283 12.8546 24.0283Z" fill="#4B4B4B"/>
<path d="M13.47 16.6665C11.835 16.6665 10.5 15.3316 10.5 13.6966C10.5 12.0616 11.835 10.7266 13.47 10.7266C15.105 10.7266 16.44 12.0616 16.44 13.6966C16.44 15.3316 15.105 16.6665 13.47 16.6665ZM13.47 12.9916C13.08 12.9916 12.75 13.3066 12.75 13.7116C12.75 14.1166 13.065 14.4316 13.47 14.4316C13.875 14.4316 14.19 14.1166 14.19 13.7116C14.19 13.3066 13.86 12.9916 13.47 12.9916Z" fill="#4B4B4B"/>
<path d="M23.2805 25.2603C21.6455 25.2603 20.3105 23.9253 20.3105 22.2903C20.3105 20.6553 21.6455 19.3203 23.2805 19.3203C24.9155 19.3203 26.2505 20.6553 26.2505 22.2903C26.2505 23.9253 24.9155 25.2603 23.2805 25.2603ZM23.2805 21.5853C22.8905 21.5853 22.5605 21.9003 22.5605 22.3053C22.5605 22.7103 22.8755 23.0253 23.2805 23.0253C23.6855 23.0253 24.0005 22.7103 24.0005 22.3053C24.0005 21.9003 23.6855 21.5853 23.2805 21.5853Z" fill="#4B4B4B"/>
<path d="M18 34.125C9.105 34.125 1.875 26.895 1.875 18C1.875 9.105 9.105 1.875 18 1.875C26.895 1.875 34.125 9.105 34.125 18C34.125 26.895 26.895 34.125 18 34.125ZM18 4.125C10.35 4.125 4.125 10.35 4.125 18C4.125 25.65 10.35 31.875 18 31.875C25.65 31.875 31.875 25.65 31.875 18C31.875 10.35 25.65 4.125 18 4.125Z" fill="#4B4B4B"/>
</svg>
