<?xml version="1.0" encoding="UTF-8"?>
<svg version="1.1" xmlns="http://www.w3.org/2000/svg" width="525" height="209">
<path d="M0 0 C173.25 0 346.5 0 525 0 C525 68.97 525 137.94 525 209 C351.75 209 178.5 209 0 209 C0 140.03 0 71.06 0 0 Z " fill="#FEFEFE" transform="translate(0,0)"/>
<path d="M0 0 C5.96103395 3.80628791 8.8244216 9.72043475 11.8671875 15.90234375 C12.2075 15.40605469 12.5478125 14.90976563 12.8984375 14.3984375 C19.97361849 4.48189393 28.26201525 -2.06370645 40.3046875 -4.91015625 C41.4803125 -4.97203125 42.6559375 -5.03390625 43.8671875 -5.09765625 C44.73730469 -5.17113281 45.60742188 -5.24460938 46.50390625 -5.3203125 C57.65648879 -5.88887553 67.44177408 -2.15741719 75.98828125 4.98828125 C78.89328325 7.94763879 80.96970234 11.23132975 82.8671875 14.90234375 C85.14408657 12.70977427 87.13595319 10.54910884 89.0546875 8.02734375 C94.5008803 1.44860932 101.81307404 -1.84962057 109.8671875 -4.09765625 C110.8571875 -4.42765625 111.8471875 -4.75765625 112.8671875 -5.09765625 C123.53715547 -6.04644349 133.38613132 -4.14512501 142.8671875 0.90234375 C141.51868913 5.26205206 139.81810904 9.21575813 137.7421875 13.27734375 C137.20335937 14.33695313 136.66453125 15.3965625 136.109375 16.48828125 C135.69945312 17.28492187 135.28953125 18.0815625 134.8671875 18.90234375 C134.00996094 18.58265625 133.15273438 18.26296875 132.26953125 17.93359375 C126.36426557 16.1437084 119.19817183 15.18096259 113.5390625 18.10546875 C109.47685582 21.48495162 107.08720635 24.63929274 106.56640625 29.99609375 C106.56253906 31.12015625 106.55867187 32.24421875 106.5546875 33.40234375 C106.52955078 35.0884375 106.52955078 35.0884375 106.50390625 36.80859375 C106.89973606 40.17953147 107.69913163 41.38533957 109.8671875 43.90234375 C109.8671875 44.56234375 109.8671875 45.22234375 109.8671875 45.90234375 C110.4446875 46.19109375 111.0221875 46.47984375 111.6171875 46.77734375 C113.00816358 47.47283179 114.38674937 48.1945973 115.7421875 48.95703125 C118.05934141 49.98782398 119.59528247 50.17048695 122.1171875 50.15234375 C123.17679687 50.16007812 123.17679687 50.16007812 124.2578125 50.16796875 C127.91409888 49.79577193 131.31563846 48.84642641 134.8671875 47.90234375 C136.23382137 50.33357644 137.5855742 52.77120538 138.9296875 55.21484375 C139.31962891 55.90513672 139.70957031 56.59542969 140.11132812 57.30664062 C141.10756233 59.13160063 141.99471592 61.01508252 142.8671875 62.90234375 C141.8671875 65.90234375 141.8671875 65.90234375 139.7578125 67.03515625 C138.45070313 67.52628906 138.45070313 67.52628906 137.1171875 68.02734375 C136.25609375 68.35992187 135.395 68.6925 134.5078125 69.03515625 C125.40797117 72.02356568 112.93996805 72.6561525 103.94921875 69.01171875 C97.08874618 65.35623243 91.01245686 60.72462223 85.8671875 54.90234375 C85.8671875 54.24234375 85.8671875 53.58234375 85.8671875 52.90234375 C85.2071875 53.58296875 84.5471875 54.26359375 83.8671875 54.96484375 C82.87197405 55.94887503 81.8713412 56.92743724 80.8671875 57.90234375 C80.27421875 58.47984375 79.68125 59.05734375 79.0703125 59.65234375 C69.55603877 68.48158977 58.65293773 71.3621093 45.8515625 71.0859375 C35.44665531 70.44584504 26.54372928 67.16393733 18.8671875 59.90234375 C16.28467458 56.73892328 13.69847529 53.56491933 11.8671875 49.90234375 C11.5371875 56.17234375 11.2071875 62.44234375 10.8671875 68.90234375 C2.6171875 68.90234375 -5.6328125 68.90234375 -14.1328125 68.90234375 C-14.17019531 65.63972656 -14.20757812 62.37710938 -14.24609375 59.015625 C-14.29232079 55.85157614 -14.34355026 52.68764502 -14.39526367 49.52368164 C-14.42849305 47.32681448 -14.45653116 45.12986235 -14.47924805 42.93286133 C-14.51283004 39.77258132 -14.56514884 36.61307854 -14.62109375 33.453125 C-14.62748367 32.47273758 -14.6338736 31.49235016 -14.64045715 30.48225403 C-14.77478978 23.6934052 -14.77478978 23.6934052 -18.1328125 17.90234375 C-22.59343106 14.92859804 -26.90371329 15.15532958 -32.1328125 15.90234375 C-35.78530801 17.77173122 -37.8681395 20.50533424 -40.1328125 23.90234375 C-40.4588493 26.02042656 -40.4588493 26.02042656 -40.45166016 28.3737793 C-40.47152985 29.27448654 -40.49139954 30.17519379 -40.51187134 31.10319519 C-40.52919815 32.55644951 -40.52919815 32.55644951 -40.546875 34.0390625 C-40.56624115 35.03363968 -40.5856073 36.02821686 -40.6055603 37.05293274 C-40.66537409 40.23181565 -40.71174889 43.41073473 -40.7578125 46.58984375 C-40.7959906 48.74415648 -40.83504223 50.89845392 -40.875 53.05273438 C-40.97272252 58.33585826 -41.05227741 63.61881784 -41.1328125 68.90234375 C-49.3828125 68.90234375 -57.6328125 68.90234375 -66.1328125 68.90234375 C-66.1328125 45.14234375 -66.1328125 21.38234375 -66.1328125 -3.09765625 C-57.8828125 -3.09765625 -49.6328125 -3.09765625 -41.1328125 -3.09765625 C-41.1328125 -0.78765625 -41.1328125 1.52234375 -41.1328125 3.90234375 C-40.46894531 3.42023438 -39.80507812 2.938125 -39.12109375 2.44140625 C-38.23808594 1.80976562 -37.35507813 1.178125 -36.4453125 0.52734375 C-35.57519531 -0.09914063 -34.70507812 -0.725625 -33.80859375 -1.37109375 C-23.14144857 -8.25412757 -10.75042267 -5.53272669 0 0 Z " fill="#030303" transform="translate(125.1328125,64.09765625)"/>
<path d="M0 0 C4.05459401 3.53022939 5.27224291 6.02330009 8.1875 11.125 C8.5175 4.195 8.8475 -2.735 9.1875 -9.875 C17.4375 -9.875 25.6875 -9.875 34.1875 -9.875 C34.6825 -6.41 34.6825 -6.41 35.1875 -2.875 C36.05375 -3.638125 36.92 -4.40125 37.8125 -5.1875 C43.79067252 -10.16461061 49.86033867 -12.24923862 57.546875 -12.16015625 C64.4481354 -11.4149018 72.41774819 -9.12172699 77.1875 -3.875 C78.5 -1.125 78.5 -1.125 79.1875 1.125 C79.91453125 0.45404297 79.91453125 0.45404297 80.65625 -0.23046875 C92.99762239 -11.36143731 92.99762239 -11.36143731 100.1875 -11.875 C100.90550781 -11.936875 101.62351562 -11.99875 102.36328125 -12.0625 C111.97644123 -12.54091543 119.12648173 -9.25606855 126.3984375 -3.14453125 C132.23431829 4.25862757 132.74474896 11.65814369 132.578125 20.81640625 C132.57246521 22.00225815 132.56680542 23.18811005 132.56097412 24.40989685 C132.53871801 28.1695216 132.4885393 31.92816694 132.4375 35.6875 C132.4174212 38.24803304 132.39917286 40.80858113 132.3828125 43.36914062 C132.34230309 49.62176775 132.26398566 55.87229734 132.1875 62.125 C123.9375 62.125 115.6875 62.125 107.1875 62.125 C107.13851562 59.17433594 107.08953125 56.22367187 107.0390625 53.18359375 C106.9849787 50.31074156 106.9277003 47.43796948 106.87011719 44.56518555 C106.83194739 42.575989 106.79707402 40.58672626 106.765625 38.59741211 C106.71971303 35.7300661 106.66176253 32.86317112 106.6015625 29.99609375 C106.58423569 28.67223915 106.58423569 28.67223915 106.56655884 27.32164001 C106.36563782 18.79360785 106.36563782 18.79360785 102.75 11.25 C99.53415827 8.93459396 96.06765211 8.73383838 92.19140625 8.76953125 C88.7624432 9.37778785 87.23100847 11.46224654 85.1875 14.125 C84.25826023 16.91271931 84.03882662 18.70734248 83.98217773 21.59643555 C83.96223251 22.49714279 83.94228729 23.39785004 83.92173767 24.32585144 C83.90502518 25.29468765 83.88831268 26.26352386 83.87109375 27.26171875 C83.8399221 28.75358452 83.8399221 28.75358452 83.80812073 30.27558899 C83.74270588 33.45448867 83.6837776 36.63347134 83.625 39.8125 C83.58180712 41.96680548 83.53819258 44.12110254 83.49414062 46.27539062 C83.38623877 51.55850991 83.28710509 56.84169167 83.1875 62.125 C74.9375 62.125 66.6875 62.125 58.1875 62.125 C58.15011719 58.86238281 58.11273438 55.59976563 58.07421875 52.23828125 C58.02799171 49.07423239 57.97676224 45.91030127 57.92504883 42.74633789 C57.89181945 40.54947073 57.86378134 38.3525186 57.84106445 36.15551758 C57.80748246 32.99523757 57.75516366 29.83573479 57.69921875 26.67578125 C57.68963387 25.20520012 57.68963387 25.20520012 57.67985535 23.70491028 C57.53845189 16.92367866 57.53845189 16.92367866 54.1875 11.125 C50.25463946 8.76528368 45.66737379 8.21092474 41.1875 9.125 C38.49644802 11.30074416 36.73217072 13.03565856 35.1875 16.125 C35.06963309 17.60512824 35.01057062 19.09016466 34.98217773 20.57470703 C34.96223251 21.49551056 34.94228729 22.41631409 34.92173767 23.36502075 C34.90502518 24.36089203 34.88831268 25.35676331 34.87109375 26.3828125 C34.8399221 27.91009476 34.8399221 27.91009476 34.80812073 29.4682312 C34.74260534 32.72875055 34.68373098 35.98935206 34.625 39.25 C34.58181668 41.45703983 34.53820245 43.66407128 34.49414062 45.87109375 C34.38610904 51.28897942 34.28705024 56.70692521 34.1875 62.125 C25.9375 62.125 17.6875 62.125 9.1875 62.125 C8.8575 55.525 8.5275 48.925 8.1875 42.125 C6.2075 44.765 4.2275 47.405 2.1875 50.125 C-3.05505248 55.72437542 -8.53422228 59.66645134 -15.8125 62.125 C-16.86566406 62.48207031 -17.91882813 62.83914062 -19.00390625 63.20703125 C-23.4708413 64.28367713 -27.54971537 64.46942802 -32.125 64.4375 C-32.96732178 64.43186035 -33.80964355 64.4262207 -34.67749023 64.42041016 C-46.80833069 64.18353923 -56.74098942 60.1051634 -65.6875 51.75 C-68.96170645 48.26778514 -70.99544135 44.51694272 -72.8125 40.125 C-73.16957031 39.38894531 -73.52664063 38.65289062 -73.89453125 37.89453125 C-76.59417951 29.749635 -76.00335905 18.12005902 -72.265625 10.39453125 C-65.43957087 -0.26659092 -56.1300329 -7.8127562 -43.8125 -10.875 C-27.48797857 -14.26310822 -12.68323626 -10.69695456 0 0 Z " fill="#030303" transform="translate(334.8125,70.875)"/>
<path d="M0 0 C4.14327184 2.25631664 6.69711307 5.08172615 8.8125 9.3125 C9.34029267 15.5242137 9.55653643 21.070849 5.8125 26.3125 C1.78542058 30.35058237 -1.74630749 32.44325249 -7.5 32.5625 C-12.44989754 32.48227476 -15.97695231 31.45115996 -19.62890625 27.91796875 C-23.86290263 23.15321498 -24.62555083 18.88968563 -24.5234375 12.69140625 C-23.92514258 8.4546434 -22.08505874 5.41302783 -19.1875 2.3125 C-13.1258664 -2.18934086 -6.96500874 -3.15420913 0 0 Z " fill="#FAFAFA" transform="translate(310.1875,81.6875)"/>
<path d="M0 0 C4.52966583 2.47551505 7.16586374 5.37259122 8.8125 10.3125 C9.18076224 15.92849916 9.02806007 19.48915989 5.8125 24.3125 C1.82884367 28.24304092 -1.30808015 30.46294094 -6.9375 30.625 C-11.8197451 30.56872052 -14.44623246 29.60837855 -18.1875 26.3125 C-22.4897759 21.54511319 -23.55032503 17.87502705 -23.46875 11.59375 C-22.88233612 6.83728189 -20.04766535 4.08874678 -16.625 1 C-11.30125617 -2.6856688 -5.78307724 -2.67575215 0 0 Z " fill="#040404" transform="translate(492.1875,104.6875)"/>
<path d="M0 0 C15.18 0 30.36 0 46 0 C50 13 50 13 49 15 C48.03578125 14.48308594 47.0715625 13.96617188 46.078125 13.43359375 C44.80241311 12.7675971 43.52635299 12.10226718 42.25 11.4375 C41.61578125 11.09525391 40.9815625 10.75300781 40.328125 10.40039062 C36.71866468 8.50291308 36.71866468 8.50291308 32.73828125 8.16015625 C29.97845269 9.49355657 27.52957478 11.27773632 25 13 C20.09386785 14.63537738 15.11968802 14.50113348 10 14 C6.4375 12.1875 6.4375 12.1875 4 10 C3.401875 9.566875 2.80375 9.13375 2.1875 8.6875 C1 7 1 7 0 0 Z " fill="#FAFAFA" transform="translate(159,101)"/>
<path d="M0 0 C3.658556 2.577619 4.84301021 4.90348314 6.75 8.9375 C6.75 9.5975 6.75 10.2575 6.75 10.9375 C-2.16 10.9375 -11.07 10.9375 -20.25 10.9375 C-19.1237819 4.18019142 -19.1237819 4.18019142 -16.3125 2.125 C-10.90993216 -1.73397703 -6.24994101 -2.04324995 0 0 Z " fill="#F4F4F4" transform="translate(180.25,76.0625)"/>
</svg>
